<?xml version="1.0" encoding="UTF-8" standalone="no"?><!-- Generator: Gravit.io --><svg xmlns="http://www.w3.org/2000/svg" xmlns:xlink="http://www.w3.org/1999/xlink" style="isolation:isolate" viewBox="0 0 1080 1080" width="1080pt" height="1080pt"><defs><clipPath id="_clipPath_8IU9xAA5Yvygv4J1CY7tnQb4pXmV0dfl"><rect width="1080" height="1080"/></clipPath></defs><g clip-path="url(#_clipPath_8IU9xAA5Yvygv4J1CY7tnQb4pXmV0dfl)"><rect width="1080" height="1080" style="fill:rgb(0,0,0)" fill-opacity="0"/><linearGradient id="_lgradient_0" x1="0" y1="0.5" x2="1" y2="0.5" gradientTransform="matrix(0,-852.874,364.045,0,0,966.437)" gradientUnits="userSpaceOnUse"><stop offset="0%" stop-opacity="1" style="stop-color:rgb(229,255,33)"/><stop offset="32.61894610525546%" stop-opacity="1" style="stop-color:rgb(255,0,0)"/><stop offset="38.52194554120645%" stop-opacity="1" style="stop-color:rgb(249,0,0)"/><stop offset="100%" stop-opacity="1" style="stop-color:rgb(231,236,31)"/></linearGradient><path d=" M 258.192 966.437 L 182.611 966.437 L 91.305 753.218 L 0 540 L 91.305 326.782 L 182.611 113.563 L 258.192 113.563 L 364.045 113.563 L 364.045 113.563 L 364.045 113.563 L 258.192 113.563 L 258.192 113.563 L 166.887 326.782 L 75.582 540 L 166.887 753.218 L 258.192 966.437 Z " fill-rule="evenodd" fill="url(#_lgradient_0)"/><linearGradient id="_lgradient_1" x1="0" y1="0.5" x2="1" y2="0.5" gradientTransform="matrix(0,-852.874,-364.045,0,1080,966.437)" gradientUnits="userSpaceOnUse"><stop offset="0%" stop-opacity="1" style="stop-color:rgb(229,255,33)"/><stop offset="32.61894610525546%" stop-opacity="1" style="stop-color:rgb(255,0,0)"/><stop offset="38.52194554120645%" stop-opacity="1" style="stop-color:rgb(249,0,0)"/><stop offset="100%" stop-opacity="1" style="stop-color:rgb(231,236,31)"/></linearGradient><path d=" M 821.808 966.437 L 897.389 966.437 L 988.695 753.218 L 1080 540 L 988.695 326.782 L 897.389 113.563 L 821.808 113.563 L 715.955 113.563 L 715.955 113.563 L 715.955 113.563 L 821.808 113.563 L 821.808 113.563 L 913.113 326.782 L 1004.418 540 L 913.113 753.218 L 821.808 966.437 Z " fill-rule="evenodd" fill="url(#_lgradient_1)"/><g><linearGradient id="_lgradient_2" x1="0" y1="0.5" x2="1" y2="0.5" gradientTransform="matrix(550.603,0,0,70.701,269.819,179.348)" gradientUnits="userSpaceOnUse"><stop offset="0%" stop-opacity="1" style="stop-color:rgb(255,179,15)"/><stop offset="50%" stop-opacity="1" style="stop-color:rgb(255,6,6)"/><stop offset="100%" stop-opacity="1" style="stop-color:rgb(255,177,10)"/></linearGradient><path d=" M 820.246 211.415 L 820.246 179.348 C 820.246 179.348 820.246 179.348 820.246 179.348 L 779.158 179.348 L 311.083 179.348 L 311.083 179.348 L 269.922 179.348 C 269.922 179.348 269.922 179.348 269.922 179.348 L 269.922 212.184 C 269.854 213.014 269.819 213.853 269.819 214.698 L 269.819 214.698 C 269.819 234.209 288.309 250.049 311.083 250.049 L 779.158 250.049 C 801.932 250.049 820.422 234.209 820.422 214.698 L 820.422 214.698 C 820.422 213.592 820.363 212.496 820.246 211.415 Z " fill-rule="evenodd" fill="url(#_lgradient_2)"/><linearGradient id="_lgradient_3" x1="-0.010066356792301417" y1="0.7899962469225947" x2="0.9999999999999998" y2="0.4999999999999996" gradientTransform="matrix(550.603,0,0,70.701,269.922,829.951)" gradientUnits="userSpaceOnUse"><stop offset="7.5%" stop-opacity="1" style="stop-color:rgb(221,171,19)"/><stop offset="45.416666666666664%" stop-opacity="1" style="stop-color:rgb(255,6,6)"/><stop offset="55.75263467880466%" stop-opacity="1" style="stop-color:rgb(255,0,0)"/><stop offset="98.75%" stop-opacity="1" style="stop-color:rgb(255,191,0)"/></linearGradient><path d=" M 820.525 865.302 L 820.525 865.302 L 820.525 865.302 C 820.525 845.791 804.685 829.951 785.175 829.951 L 305.272 829.951 C 285.762 829.951 269.922 845.791 269.922 865.302 L 269.922 865.302 L 269.922 865.302 L 269.922 865.302 L 269.922 900.652 L 305.272 900.652 L 305.272 900.652 L 545.224 900.652 L 785.175 900.652 L 785.175 900.652 L 820.525 900.652 L 820.525 865.302 Z " fill-rule="evenodd" fill="url(#_lgradient_3)"/><linearGradient id="_lgradient_4" x1="0" y1="0.5" x2="0.9492392885737111" y2="1.181295563584282" gradientTransform="matrix(276.436,0,0,247.015,558.739,568.11)" gradientUnits="userSpaceOnUse"><stop offset="0%" stop-opacity="1" style="stop-color:rgb(255,0,0)"/><stop offset="100%" stop-opacity="1" style="stop-color:rgb(255,197,22)"/></linearGradient><path d=" M 580.606 581.208 C 581.434 580.158 582.331 579.146 583.299 578.178 L 583.299 578.178 C 597.095 564.382 619.933 564.819 634.266 579.153 L 710.225 655.111 L 809.204 754.09 L 835.175 780.061 L 810.178 805.058 L 810.178 805.058 L 810.178 805.058 C 810.178 805.058 810.178 805.058 810.178 805.058 L 808.639 806.597 L 808.591 806.548 C 794.683 818.802 773.008 817.88 759.211 804.083 L 584.274 629.146 C 582.979 627.851 581.797 626.487 580.729 625.066 L 558.739 603.076 L 580.606 581.208 Z " fill-rule="evenodd" fill="url(#_lgradient_4)"/><linearGradient id="_lgradient_5" x1="0" y1="0.5" x2="1" y2="0.5" gradientTransform="matrix(565.508,0,0,550.603,269.819,264.698)" gradientUnits="userSpaceOnUse"><stop offset="46.25%" stop-opacity="1" style="stop-color:rgb(247,4,4)"/><stop offset="98.33333333333333%" stop-opacity="1" style="stop-color:rgb(247,209,72)"/></linearGradient><path d=" M 380.243 754.87 L 330.159 804.955 C 322.572 812.541 312.384 815.956 302.456 815.199 L 269.922 815.199 L 269.922 782.665 C 269.784 780.863 269.784 779.053 269.922 777.252 L 269.922 632.345 L 269.922 632.345 L 269.922 595.068 L 305.272 595.068 L 305.272 595.068 L 305.272 595.068 L 305.272 595.068 C 324.783 595.068 340.623 611.772 340.623 632.345 L 340.623 694.505 L 760.082 275.045 C 773.878 261.249 796.279 261.249 810.075 275.045 L 810.075 275.045 C 810.31 275.28 810.541 275.517 810.768 275.757 L 811.024 275.501 L 835.326 299.804 L 380.252 754.879 L 380.243 754.87 Z " fill-rule="evenodd" fill="url(#_lgradient_5)"/><linearGradient id="_lgradient_6" x1="0.8535533905932738" y1="0.8535533905932737" x2="0.14644660940672616" y2="0.14644660940672627" gradientTransform="matrix(70.701,0,0,299.771,269.922,267.975)" gradientUnits="userSpaceOnUse"><stop offset="0%" stop-opacity="1" style="stop-color:rgb(240,0,0)"/><stop offset="3.75%" stop-opacity="1" style="stop-color:rgb(240,3,0)"/><stop offset="100%" stop-opacity="1" style="stop-color:rgb(253,172,20)"/></linearGradient><path d=" M 305.272 567.746 C 324.783 567.746 340.623 548.254 340.623 524.245 L 340.623 311.476 C 340.623 287.467 324.783 267.975 305.272 267.975 L 305.272 267.975 C 303.716 267.975 302.184 268.099 300.681 268.339 L 269.922 268.339 C 269.922 268.339 269.922 268.339 269.922 268.339 L 269.922 311.476 L 269.922 311.476 L 269.922 524.245 L 269.922 524.245 L 269.922 567.746 L 269.922 567.746 L 305.272 567.746 L 305.272 567.746 L 305.272 567.746 Z " fill-rule="evenodd" fill="url(#_lgradient_6)"/><linearGradient id="_lgradient_7" x1="0.8535533905932737" y1="0.14644660940672616" x2="0.5505673011127141" y2="1.1051900944776514" gradientTransform="matrix(70.701,0,0,299.771,764.474,388.7)" gradientUnits="userSpaceOnUse"><stop offset="0%" stop-opacity="1" style="stop-color:rgb(249,202,84)"/><stop offset="86.25%" stop-opacity="1" style="stop-color:rgb(255,0,0)"/></linearGradient><path d=" M 799.824 388.7 L 799.824 388.7 L 799.824 388.7 L 799.824 388.7 L 799.721 388.7 C 799.721 388.7 799.721 388.7 799.721 388.7 L 799.721 388.701 C 780.258 388.769 764.474 408.235 764.474 432.201 L 764.474 644.971 C 764.474 668.979 780.314 688.472 799.824 688.472 L 799.824 688.472 C 801.38 688.472 802.912 688.348 804.415 688.107 L 835.072 688.107 L 835.072 688.107 L 835.072 648.313 C 835.14 647.21 835.175 646.095 835.175 644.971 L 835.175 432.201 C 835.175 431.077 835.14 429.962 835.072 428.859 L 835.072 388.7 C 835.072 388.7 835.072 388.7 835.072 388.7 L 799.824 388.7 Z " fill-rule="evenodd" fill="url(#_lgradient_7)"/></g></g></svg>